PathFileType	4	(X/Y/Z)	D:\TRACE\v60_Jaco2_6-2-23\BothDRS_Motion1_9-v60.trc
DataRate	CameraRate	NumFrames	NumMarkers	Units	OrigDataRate	OrigDataStartFrame	OrigNumFrames
100.00	100.00	      35	9	mm	100.00	3751	      7500
Frame#	Time	front left toe			Front right toe			aft left toe			aft right toe			Arm			FL body			FR body			AL Body			AR Body			
		X1	Y1	Z1	X2	Y2	Z2	X3	Y3	Z3	X4	Y4	Z4	X5	Y5	Z5	X6	Y6	Z6	X7	Y7	Z7	X8	Y8	Z8	X9	Y9	Z9	

3751	37.500	-142.93979	31.95990	-273.96692	260.89334	50.07495	-303.63547	-102.41738	22.68748	330.87927	238.20081	0.20512	348.20184	123.18274	1128.47058	-662.95880	-14.43102	591.81171	-422.10706	145.38383	587.34937	-425.62827	6.20340	550.87787	522.96991	160.23898	540.71045	520.25793	
3752	37.510	-142.38803	32.26086	-273.83768	263.42529	43.63510	-304.83066	-101.06544	16.65489	330.21170	238.73230	0.02120	348.05725	123.78933	1128.61829	-663.71094	-13.35555	591.88269	-423.06076	146.59763	587.29730	-426.93475	8.61072	550.33820	521.95380	162.72519	540.59875	519.29034	
3753	37.520	-142.08127	32.58730	-273.82788	265.88486	37.49239	-306.35739	-99.15132	10.14304	328.45840	239.49214	-0.04882	348.10309	124.75819	1128.84595	-664.65332	-12.35664	592.12982	-423.99228	147.56454	587.32178	-427.98352	11.51559	549.77679	521.02216	166.15877	539.77484	517.95190	
3754	37.530	-140.98859	32.58371	-273.97345	266.65826	35.03548	-309.10019	-97.33945	3.57790	326.85794	240.44464	-0.31695	347.96188	125.63625	1128.95508	-665.71539	-11.62351	592.52399	-425.22916	149.05043	587.49249	-429.70325	14.06602	549.59772	519.89758	168.92908	539.37421	516.73834	
3755	37.540	-140.10944	32.57533	-273.98853	267.79602	32.34407	-308.95322	-96.31438	0.93893	324.54645	241.07578	-0.39537	347.95517	126.63193	1129.11401	-666.87061	-10.25094	592.42554	-426.34921	149.77525	588.20972	-430.77115	16.40532	549.05792	518.71320	171.48286	539.26318	515.25513	
3756	37.550	-139.63098	32.43091	-274.27203	268.67554	32.39563	-309.61331	-96.47814	0.14697	324.71198	241.88570	-0.17770	347.67642	127.43945	1129.63269	-667.90228	-8.46765	592.78308	-426.84628	151.09035	588.95990	-432.25238	18.73875	549.92120	517.52380	172.35114	539.86011	513.75330	
3757	37.560	-138.38676	32.80519	-274.72336	269.31677	32.46231	-309.13803	-95.92353	0.61605	325.54507	242.79727	0.45580	347.13882	128.20325	1130.55103	-668.92328	-7.90662	593.38623	-428.17828	152.08830	589.20282	-433.82263	21.36114	551.84241	516.78967	176.39081	541.55634	512.74548	
3758	37.570	-136.76743	35.79943	-274.17053	269.63382	31.47391	-309.48877	-94.86951	1.50204	325.68863	243.16074	2.47610	347.56491	128.64584	1131.51831	-671.06799	-7.17557	593.79675	-428.85126	153.11586	589.43463	-434.49780	24.29113	553.43732	516.13800	179.36530	542.53436	510.13596	
3759	37.580	-131.97411	38.82670	-272.05157	270.31387	31.71102	-309.67529	-93.81914	-0.14071	326.23706	242.03534	5.48666	350.42139	128.90988	1132.04858	-672.99139	-6.51952	595.32794	-429.84515	153.20215	590.06842	-435.19113	26.39100	554.29150	515.05548	180.92133	543.16687	508.95865	
3760	37.590	-125.61237	46.07642	-268.91821	271.11633	31.70826	-309.74680	-93.53623	0.82009	325.21762	241.07925	13.94563	352.26788	129.19418	1131.84802	-674.41217	-5.94707	595.92102	-430.65237	154.35013	590.93268	-436.45493	28.47608	554.41809	513.98322	183.93842	543.51398	509.78159	
3761	37.600	-121.80945	55.90453	-269.87384	271.57263	31.34166	-310.09341	-93.00311	0.65309	325.39749	240.78970	23.21606	351.56592	129.45335	1131.65210	-674.79926	-3.93630	596.34088	-431.45935	155.56606	591.29651	-437.75201	31.15683	554.81342	513.11658	186.02016	543.65753	508.18097	
3762	37.610	-119.87331	68.61182	-270.91675	272.11737	31.03529	-309.98859	-91.93329	0.41609	325.45605	242.23029	36.07267	349.38089	130.97723	1132.16785	-675.35712	-3.30624	596.32379	-432.67911	156.59724	591.33191	-438.71033	32.81688	554.75952	512.08380	187.85768	543.66278	507.25482	
3763	37.620	-119.96726	81.35085	-273.93033	273.24234	31.05483	-309.72800	-91.57218	0.68238	325.45789	245.54929	48.02496	345.45111	131.96558	1133.17651	-675.77338	-1.68316	596.28314	-433.28488	158.01071	591.40430	-440.13589	34.37104	554.19116	511.31964	189.56798	543.45490	506.53171	
3764	37.630	-119.86023	95.58121	-277.50000	273.97137	30.72564	-310.06866	-91.18489	0.35052	325.39838	252.43048	62.30270	341.01187	133.11853	1133.72583	-676.05139	-0.03203	596.16626	-433.90985	159.61824	591.33484	-440.76114	35.85713	553.44769	510.71658	190.98442	542.73883	505.55881	
3765	37.640	-119.40516	109.10979	-280.81058	274.45706	30.54388	-309.97241	-90.85999	0.27779	325.28543	258.47931	74.41975	336.31732	134.17651	1133.52979	-676.08496	1.33801	596.10339	-434.62338	161.03401	591.19122	-441.36615	36.76246	553.01379	509.68890	192.07307	542.01758	504.84622	
3766	37.650	-117.30262	122.26635	-284.38531	275.18369	30.36279	-310.01764	-90.63214	0.07788	325.19122	265.41312	87.82384	331.70148	136.74300	1133.02148	-677.05725	1.79419	596.45520	-435.63046	162.06317	591.42255	-442.05322	37.93981	552.05591	509.04419	193.46947	541.10986	504.03329	
3767	37.660	-114.96390	134.65115	-287.41125	274.54440	30.06629	-310.29126	-90.38050	0.13871	325.24435	270.40735	99.92642	327.88437	139.15732	1133.02454	-677.14923	2.91346	596.56689	-436.19666	162.90614	591.64691	-443.05554	39.20454	551.64697	508.34631	193.62918	540.36304	503.68918	
3768	37.670	-112.96701	146.32895	-290.24258	275.06369	29.93736	-310.21841	-89.99367	0.45340	325.08725	274.16864	111.39544	324.15564	140.93739	1133.29749	-677.36578	3.90282	597.00555	-436.65668	164.22220	591.67767	-443.18143	40.74402	551.13824	507.82101	196.07491	540.09528	503.51434	
3769	37.680	-111.69284	157.24559	-292.73160	275.29303	29.87986	-310.26038	-89.54754	0.68604	325.08820	276.72443	121.61932	320.61014	143.36620	1133.75671	-677.37531	4.99083	597.50769	-437.13699	165.32191	591.57922	-443.54388	42.44127	551.21295	507.77081	196.77570	539.88086	502.36060	
3770	37.690	-110.68718	165.85564	-294.60397	275.50015	29.74080	-310.41275	-89.36868	0.95894	325.09995	279.41910	129.09361	318.46457	144.92844	1133.99792	-677.63055	6.01987	597.30048	-437.27499	165.84647	591.33441	-443.72458	43.70396	550.95911	507.35641	197.93552	539.69214	502.06622	
3771	37.700	-109.52919	170.47998	-295.28357	275.76025	29.58018	-310.55423	-89.12701	0.99588	325.10675	282.86676	134.09326	316.91724	146.16356	1134.18958	-677.88239	7.34624	597.15045	-437.39676	167.66679	591.31268	-444.11609	44.90528	550.98987	506.89899	200.01511	539.43115	501.81152	
3772	37.710	-108.00365	172.88710	-295.42673	275.99432	29.37164	-310.70505	-88.76997	0.86453	325.05017	286.29718	135.47661	315.33179	147.97696	1134.07556	-677.94489	9.47479	596.95581	-437.26389	168.59264	591.38953	-444.01001	45.85806	550.86835	506.87802	200.20377	539.10968	501.57047	
3773	37.720	-106.57784	172.17064	-295.11993	276.13531	29.20200	-310.70865	-88.62839	1.01501	324.96286	291.27859	134.65660	314.60446	149.46211	1133.73108	-678.28436	10.63604	597.10754	-437.21524	170.17473	591.47583	-444.40329	46.97965	550.93628	506.82175	202.39384	538.95941	502.15097	
3774	37.730	-104.64256	168.68275	-294.80322	276.25394	29.01492	-310.77609	-88.36093	1.20561	324.87891	295.17041	130.61623	313.76678	150.30141	1133.62891	-678.16583	11.18002	597.89832	-437.53510	171.34947	591.39740	-444.33337	48.38883	551.09583	506.96954	203.26085	538.99530	502.30841	
3775	37.740	-102.62708	164.03853	-294.54214	276.42239	28.90036	-310.84131	-88.13029	1.46830	324.80731	298.91040	126.08748	313.62595	153.00430	1133.29614	-678.31567	12.62194	597.75208	-437.64929	172.22325	590.98798	-443.87930	49.38932	551.28906	506.94196	206.29030	539.37335	504.29919	
3776	37.750	-99.79840	158.17357	-294.50723	276.62329	28.81363	-310.86481	-88.02045	1.55140	324.91382	302.80371	120.66451	313.46957	154.54378	1133.15662	-678.22369	14.37462	597.45953	-437.26978	173.83128	590.89319	-444.21646	50.82118	551.00940	507.21832	207.48830	539.41577	504.52606	
3777	37.760	-96.38217	151.17564	-294.51834	276.73505	28.64764	-310.88422	-87.95273	1.50235	324.95755	307.05038	114.96484	313.90369	157.03984	1132.95081	-677.82813	14.63396	597.30475	-437.54758	175.13626	590.70483	-444.10571	51.35100	551.07355	507.01498	208.81009	539.04620	504.72830	
3778	37.770	-92.93393	143.39211	-294.73389	276.93289	28.48842	-310.93896	-87.91383	1.57823	325.02097	309.87561	107.28242	313.23151	158.10536	1132.85730	-677.54230	16.34283	596.91064	-437.23422	176.21671	590.72290	-443.97894	52.85900	550.54578	507.28104	208.13080	538.25006	502.36215	
3779	37.780	-89.61208	134.93320	-295.35806	277.06738	28.30585	-310.89322	-87.86872	1.73744	324.94675	315.44168	99.26817	312.90344	160.51729	1133.15369	-677.12024	18.07242	596.95758	-436.60596	177.41647	590.67963	-443.75555	54.42843	550.29828	507.59479	209.46915	537.95313	502.42563	
3780	37.790	-86.70325	125.82105	-295.57327	277.23978	28.17641	-310.85797	-87.85101	1.88798	324.79071	320.68915	90.37131	312.31519	161.39958	1133.36499	-676.81836	18.68114	597.56525	-436.80008	178.47020	590.53790	-443.42694	55.41801	549.99933	507.64249	210.09048	537.69403	502.53690	
3781	37.800	-83.55314	115.87576	-295.68338	277.44293	28.03769	-310.81708	-87.89594	1.96086	324.70135	324.55438	80.30311	311.91541	162.40694	1133.54517	-676.14136	20.00940	597.30133	-436.67441	180.54781	590.52460	-443.16718	56.20514	549.83777	507.76932	210.96953	537.19312	502.70956	
3782	37.810	-80.19167	105.85173	-295.34592	277.56393	27.73907	-310.84564	-87.90215	2.01255	324.67090	329.29810	71.61323	311.86606	163.33542	1133.11560	-675.98682	21.59865	596.95471	-436.48956	181.60338	590.44409	-442.67551	57.86169	548.97815	508.14005	212.67010	536.70947	502.89996	
3783	37.820	-76.77114	95.49874	-294.46387	277.66510	27.24070	-310.86453	-87.92143	2.11942	324.64951	332.16675	62.54653	311.96411	164.54301	1132.87122	-675.44458	23.22620	596.67267	-436.12210	183.26711	590.35181	-442.82489	59.01613	548.89874	508.34192	214.43739	536.33258	503.30872	
3784	37.830	-73.36833	85.56476	-293.56400	277.72928	26.94447	-310.90149	-87.84284	2.31537	324.64087	334.60358	53.74134	312.47250	165.79863	1132.93469	-675.12250	25.09579	596.33478	-435.50290	184.04660	589.62573	-442.13205	60.49709	548.70642	508.48633	215.76231	536.08197	503.54312	
3785	37.840	-70.77458	76.61942	-292.11371	277.65283	26.59868	-310.98929	-87.71837	2.87982	324.62775	336.82404	45.40357	313.71335	166.79080	1132.99402	-674.86145	26.31670	596.30432	-435.25714	186.29523	589.92767	-442.26584	62.74963	548.28595	509.06168	218.00327	536.03394	504.13980	
